<?xml version="1.0" encoding="UTF-8" standalone="no"?>
<svg
   xmlns:osb="http://www.openswatchbook.org/uri/2009/osb"
   xmlns:dc="http://purl.org/dc/elements/1.1/"
   xmlns:cc="http://creativecommons.org/ns#"
   xmlns:rdf="http://www.w3.org/1999/02/22-rdf-syntax-ns#"
   xmlns:svg="http://www.w3.org/2000/svg"
   xmlns="http://www.w3.org/2000/svg"
   id="svg8"
   version="1.1"
   viewBox="0 0 69.752251 58.532024"
   height="58.532024mm"
   width="69.752251mm">
  <defs
     id="defs2">
    <marker
       style="overflow:visible"
       id="marker53845"
       refX="0"
       refY="0"
       orient="auto">
      <path
         transform="matrix(-0.8,0,0,-0.8,-10,0)"
         style="fill:#002b36;fill-opacity:1;fill-rule:evenodd;stroke:#002b36;stroke-width:1.00000003pt;stroke-opacity:1"
         d="M 0,0 5,-5 -12.5,0 5,5 Z"
         id="path53843" />
    </marker>
    <marker
       orient="auto"
       refY="0"
       refX="0"
       id="marker53821"
       style="overflow:visible">
      <path
         id="path53819"
         d="M 0,0 5,-5 -12.5,0 5,5 Z"
         style="fill:#002b36;fill-opacity:1;fill-rule:evenodd;stroke:#002b36;stroke-width:1.00000003pt;stroke-opacity:1"
         transform="matrix(-0.8,0,0,-0.8,-10,0)" />
    </marker>
    <marker
       style="overflow:visible"
       id="marker6481"
       refX="0"
       refY="0"
       orient="auto">
      <path
         transform="matrix(-0.8,0,0,-0.8,-10,0)"
         style="fill:#002b36;fill-opacity:1;fill-rule:evenodd;stroke:#002b36;stroke-width:1.00000003pt;stroke-opacity:1"
         d="M 0,0 5,-5 -12.5,0 5,5 Z"
         id="path6479" />
    </marker>
    <marker
       style="overflow:visible"
       id="marker6435"
       refX="0"
       refY="0"
       orient="auto">
      <path
         transform="matrix(0.8,0,0,0.8,10,0)"
         style="fill:#002b36;fill-opacity:1;fill-rule:evenodd;stroke:#002b36;stroke-width:1.00000003pt;stroke-opacity:1"
         d="M 0,0 5,-5 -12.5,0 5,5 Z"
         id="path6433" />
    </marker>
    <marker
       style="overflow:visible"
       id="marker6297"
       refX="0"
       refY="0"
       orient="auto">
      <path
         transform="matrix(0.8,0,0,0.8,10,0)"
         style="fill:#002b36;fill-opacity:1;fill-rule:evenodd;stroke:#002b36;stroke-width:1.00000003pt;stroke-opacity:1"
         d="M 0,0 5,-5 -12.5,0 5,5 Z"
         id="path6295" />
    </marker>
    <marker
       style="overflow:visible"
       id="Arrow1Lstart"
       refX="0"
       refY="0"
       orient="auto">
      <path
         transform="matrix(0.8,0,0,0.8,10,0)"
         style="fill:#002b36;fill-opacity:1;fill-rule:evenodd;stroke:#002b36;stroke-width:1.00000003pt;stroke-opacity:1"
         d="M 0,0 5,-5 -12.5,0 5,5 Z"
         id="path6013" />
    </marker>
    <linearGradient
       osb:paint="solid"
       id="linearGradient6005">
      <stop
         id="stop6003"
         offset="0"
         style="stop-color:#000000;stop-opacity:1;" />
    </linearGradient>
  </defs>
  <metadata
     id="metadata5">
    <rdf:RDF>
      <cc:Work
         rdf:about="">
        <dc:format>image/svg+xml</dc:format>
        <dc:type
           rdf:resource="http://purl.org/dc/dcmitype/StillImage" />
        <dc:title></dc:title>
      </cc:Work>
    </rdf:RDF>
  </metadata>
  <g
     transform="translate(-106.63207,-54.051996)"
     id="layer1">
    <circle
       style="stroke-width:0.26458332"
       r="29.266012"
       cy="83.318008"
       cx="140.98468"
       id="path21" />
    <path
       transform="scale(0.26458333)"
       id="path23"
       d="m 510.17787,422.5935 c -33.63102,-7.19297 -61.91429,-29.61169 -76.75227,-60.83766 -25.78359,-54.26058 -2.59124,-119.77669 51.58138,-145.71232 59.74905,-28.60539 129.28144,0.12822 151.76012,62.71346 7.7584,21.60096 7.7584,50.82613 0,72.4271 -11.35536,31.61563 -36.04454,56.30542 -67.64725,67.64891 -16.5844,5.95281 -41.31474,7.5306 -58.94198,3.76051 z"
       style="fill:#002b36;fill-opacity:1;stroke-width:1.01015258" />
    <path
       transform="scale(0.26458333)"
       id="path4533"
       d="m 517.14975,423.57296 c -22.23424,-3.15091 -45.52723,-14.92882 -61.8952,-31.29678 -42.83887,-42.83886 -42.64503,-112.11462 0.43403,-155.11455 37.12849,-37.0603 96.25752,-42.32145 139.62434,-12.42342 18.71995,12.90594 33.98649,33.13696 41.41073,54.87698 7.19037,21.05513 7.19134,49.63873 0.002,70.71068 -12.25615,35.92481 -44.46114,64.47391 -80.99032,71.79636 -8.98562,1.8012 -30.42496,2.60727 -38.586,1.45073 z"
       style="opacity:1;fill:#002b36;fill-opacity:1;stroke:#002b36;stroke-width:1.01015258;stroke-opacity:1" />
    <path
       transform="scale(0.26458333)"
       id="path4535"
       d="m 515.32964,423.52426 c -21.24829,-3.3187 -44.15035,-15.2056 -60.15345,-31.22156 -13.87612,-13.88727 -23.54588,-31.05718 -29.0031,-51.49876 -2.25847,-8.45974 -2.58183,-11.69523 -2.58183,-25.83341 0,-14.13819 0.32336,-17.37368 2.58183,-25.83341 8.91755,-33.40325 28.88098,-58.11167 58.73224,-72.69196 14.09736,-6.88558 27.09936,-10.1376 43.20576,-10.80647 15.29845,-0.63532 26.19931,0.74864 38.73633,4.91789 29.7888,9.90643 51.91882,29.67844 65.64142,58.64713 7.34634,15.50826 9.08916,24.28395 9.08916,45.76682 0,21.44136 -1.74468,30.26248 -9.02536,45.63212 -6.355,13.41557 -13.585,23.31696 -24.80316,33.96762 -15.13988,14.37402 -32.24139,23.57832 -51.00358,27.45096 -9.62566,1.9868 -32.90889,2.83176 -41.41626,1.50303 z"
       style="opacity:0;fill:#002b36;fill-opacity:1;stroke:#002b36;stroke-width:0.37795275;stroke-miterlimit:0;stroke-dasharray:none;stroke-opacity:1" />
    <path
       id="path6011"
       d="m 166.69483,108.38988 c -58.87465,0 -58.87465,0 -58.87465,0"
       style="fill:none;stroke:#002b36;stroke-width:0.61199999;stroke-linecap:butt;stroke-linejoin:miter;stroke-miterlimit:0;stroke-dasharray:none;stroke-opacity:1;marker-start:url(#marker53821);marker-end:url(#marker53845);paint-order:stroke fill markers" />
    <path
       id="path53907"
       d="m 151.37946,59.441963 c 2.3309,1.700928 4.66175,3.401819 6.48858,5.165651 1.82684,1.763831 3.14978,3.590751 3.96872,5.008116 0.81895,1.417365 1.13392,2.425275 1.44895,3.433375"
       style="fill:none;stroke:#d6d6d6;stroke-width:1.26499999;stroke-linecap:butt;stroke-linejoin:miter;stroke-miterlimit:4;stroke-dasharray:none;stroke-opacity:1" />
    <text
       id="text53913"
       y="100.98155"
       x="120.83897"
       style="font-style:normal;font-weight:normal;font-size:10.58333302px;line-height:1.25;font-family:sans-serif;letter-spacing:0px;word-spacing:0px;fill:#d6d6d6;fill-opacity:1;stroke:none;stroke-width:0.26458332"
       xml:space="preserve"><tspan
         style="font-style:normal;font-variant:normal;font-weight:normal;font-stretch:normal;font-family:'Vazir Code';-inkscape-font-specification:'Vazir Code';fill:#d6d6d6;fill-opacity:1;stroke-width:0.26458332"
         y="100.98155"
         x="120.83897"
         id="tspan53911">palantir</tspan></text>
  </g>
</svg>
